<?xml version="1.0" encoding="UTF-8"?> <svg xmlns="http://www.w3.org/2000/svg" viewBox="0 0 143.99 43.39"><defs><style>.cls-1{fill:#fd9b00;}.cls-1,.cls-2{fill-rule:evenodd;}</style></defs><g id="Layer_2" data-name="Layer 2"><g id="Layer_1-2" data-name="Layer 1"><path class="cls-1" d="M89.39,33.88A29.38,29.38,0,0,1,86.22,36V32.72c.62-.23,1.31-.54,1.93-.77,1.39-.62,2.63.93,1.24,1.93Zm7.34-5.41a2.42,2.42,0,0,0-.31-1.31c-.7-.85-5.8-1.62-10.21-.31v2.4c2.71-.23,5.88-.31,6.65.7,1.08,1.31-1.24,7-2.24,9.51-.31.77.39,1.08,1.08.54,3.48-2.94,5-8.28,5-11.06v-.47ZM86.22,36a56.38,56.38,0,0,1-27.76,7.42A55.8,55.8,0,0,1,20.64,28.93c-.85-.7-.15-1.7.85-1.16A76,76,0,0,0,59.31,37.82a74.65,74.65,0,0,0,26.91-5.1V36Zm0-9.13a12.41,12.41,0,0,0-3.33,1.62c-.77.54-.62,1.24.15,1.16s1.93-.23,3.17-.39V26.84Z"></path><path class="cls-2" d="M112.28,25.61V21c3.33-.08,3.48-4.87,3.48-7.73a20.32,20.32,0,0,0-.7-6.11,2.77,2.77,0,0,0-2.78-2.24V.25c6.5.08,10,5.72,10,12.92,0,7-3.94,12.36-10,12.44Zm18.64-.47h-4.41a.92.92,0,0,1-.85-.85V1.48a.85.85,0,0,1,.85-.77h4.18a.81.81,0,0,1,.77.7V4.89h.08c1.24-3.17,3-4.64,6.11-4.64A5.81,5.81,0,0,1,142.83,3C144,4.82,144,7.83,144,10.07v14.3a.91.91,0,0,1-.85.77h-4.49a.9.9,0,0,1-.77-.77V12.07c0-2.55.31-6.19-2.78-6.19a3,3,0,0,0-2.63,1.86,10.18,10.18,0,0,0-.7,4.33V24.29A.86.86,0,0,1,130.92,25.14ZM83.28,4.73V1.48a.86.86,0,0,1,.85-.85H98.75a.86.86,0,0,1,.85.85V4.26a4.86,4.86,0,0,1-1.08,2.09L90.94,17.18A16.61,16.61,0,0,1,99.29,19a1.82,1.82,0,0,1,.77,1.31v3.4a.83.83,0,0,1-1.08.77,16.8,16.8,0,0,0-15.47,0c-.54.31-1.08-.31-1.08-.77V20.42A4.06,4.06,0,0,1,83,18.18L91.79,5.57H84.13a.79.79,0,0,1-.85-.84Zm29-4.49V4.88h0c-3.33,0-3.48,4.49-3.48,7.27S108.72,21,112.2,21h.08v4.64h-.08c-6.5,0-10-5.65-10-12.68S105.78.25,112.2.25Zm-44,24.83V21a3.89,3.89,0,0,0,2.47-2,8.9,8.9,0,0,0,.85-4.72v-.93a15.38,15.38,0,0,0-3.33.31V10.06c1.16-.15,2.32-.23,3.33-.31V9.13a5.81,5.81,0,0,0-.54-3.25A3.19,3.19,0,0,0,68.5,4.72h-.23V0h.93a10.05,10.05,0,0,1,6.65,2.24c2.16,2,2,4.72,2,7.66v7A6.09,6.09,0,0,0,79.48,21c.31.39.39.85,0,1.16-.85.77-2.48,2.17-3.4,2.94h0a1.09,1.09,0,0,1-1.08.08,12.12,12.12,0,0,1-2.55-2.94A9.72,9.72,0,0,1,68.27,25.07ZM68.27,0V4.73a3.49,3.49,0,0,0-3.33,2.71,1.1,1.1,0,0,1-.77.85l-4.33-.54a.69.69,0,0,1-.62-.93c.93-4.88,5-6.58,9-6.81Zm0,10.05v3.56a4.07,4.07,0,0,0-3.33,4.18c0,1.93,1,3.25,2.71,3.25.23,0,.39-.08.62-.08v4.1a12.77,12.77,0,0,1-3.17.39c-3.71,0-6.65-2.32-6.65-6.88a7.46,7.46,0,0,1,4.72-7.27,17.19,17.19,0,0,1,5.1-1.25Zm-58.46,15V21a3.71,3.71,0,0,0,2.47-2c.93-1.55.85-2.94.85-4.72h0v-.93a15.38,15.38,0,0,0-3.33.31V10.06c1.16-.15,2.32-.23,3.33-.31V9.13a5.81,5.81,0,0,0-.54-3.25,3.06,3.06,0,0,0-2.48-1.16H9.8V0h.93a10.41,10.41,0,0,1,6.73,2.24c2.17,2,1.93,4.72,1.93,7.66v7a5.77,5.77,0,0,0,1.7,4.1A.84.84,0,0,1,21,22.12c-.85.77-2.47,2.17-3.4,2.94h0a1.09,1.09,0,0,1-1.08.08A12.12,12.12,0,0,1,14,22.2a9.69,9.69,0,0,1-4.17,2.87Zm20,.07H25.35a.83.83,0,0,1-.77-.77V1.56a.86.86,0,0,1,.85-.85h4.1a.85.85,0,0,1,.85.77v3h.08A5.81,5.81,0,0,1,36.34.25c2.78,0,4.56,1.32,5.8,4.25A6.21,6.21,0,0,1,48.25.25a6.32,6.32,0,0,1,5.18,2.48c1.39,1.93,1.16,4.72,1.16,7.19V24.31a.88.88,0,0,1-.93.85H49.25a.85.85,0,0,1-.77-.85V12.23A26,26,0,0,0,48.33,8,2.32,2.32,0,0,0,45.7,6a2.89,2.89,0,0,0-2.63,1.86,13.91,13.91,0,0,0-.46,4.41V24.31a.86.86,0,0,1-.85.85H37.27a.91.91,0,0,1-.77-.85V12.23c0-2.55.39-6.34-2.71-6.34S30.7,9.6,30.7,12.23V24.3A.87.87,0,0,1,29.84,25.14ZM9.81,0V4.73A3.53,3.53,0,0,0,6.49,7.44a1,1,0,0,1-.77.85L1.39,7.75a.73.73,0,0,1-.62-.93C1.69,1.94,5.86.24,9.81,0Zm0,10.05v3.56A4.06,4.06,0,0,0,6.49,17.8c0,1.93,1,3.25,2.71,3.25.23,0,.46-.08.62-.08v4.1a12.77,12.77,0,0,1-3.17.39C2.94,25.46,0,23.14,0,18.58a7.42,7.42,0,0,1,4.8-7.27A16.38,16.38,0,0,1,9.81,10.06Z"></path></g></g></svg> 