<?xml version="1.0" encoding="UTF-8"?> <svg xmlns="http://www.w3.org/2000/svg" xmlns:xlink="http://www.w3.org/1999/xlink" version="1.1" id="Layer_1" x="0px" y="0px" viewBox="0 0 150.1 185" style="enable-background:new 0 0 150.1 185;" xml:space="preserve"> <path d="M147.1,133.3c-0.2,0.6-3.8,12.7-12.3,25.2c-7.4,10.7-15,21.5-27,21.7c-11.9,0.2-15.7-7.1-29.2-7.1c-13.5,0-17.8,6.8-29,7.2 c-11.6,0.4-20.5-11.6-27.9-22.4C6.4,136.1-5.1,96,10.5,68.9C18.2,55.5,32,47,47.1,46.8c11.4-0.2,22.2,7.7,29.2,7.7 c7,0,20.1-9.5,33.9-8.1c5.7,0.2,21.9,2.4,32.3,17.6c-0.8,0.5-19.3,11.2-19.1,33.6C123.6,124.3,146.8,133.2,147.1,133.3z M101,31.8 c6.2-7.5,10.4-17.9,9.2-28.2c-8.9,0.3-19.7,5.9-26,13.4c-5.7,6.6-10.8,17.2-9.4,27.4C84.7,45.1,94.9,39.3,101,31.8z"></path> </svg> 