<?xml version="1.0" encoding="UTF-8"?> <svg xmlns="http://www.w3.org/2000/svg" xmlns:xlink="http://www.w3.org/1999/xlink" width="80px" height="27px" viewBox="0 0 80 27" version="1.1"><title>brand-google</title><g id="Page-1" stroke="none" stroke-width="1" fill="none" fill-rule="evenodd"><g id="brand-google" fill-rule="nonzero"><path d="M34.2962963,13.9792593 C34.2962963,17.762963 31.3362963,20.5511111 27.7037037,20.5511111 C24.0711111,20.5511111 21.1111111,17.762963 21.1111111,13.9792593 C21.1111111,10.1688889 24.0711111,7.40740741 27.7037037,7.40740741 C31.3362963,7.40740741 34.2962963,10.1688889 34.2962963,13.9792593 Z M31.4103704,13.9792593 C31.4103704,11.6148148 29.6948148,9.99703704 27.7037037,9.99703704 C25.7125926,9.99703704 23.997037,11.6148148 23.997037,13.9792593 C23.997037,16.32 25.7125926,17.9614815 27.7037037,17.9614815 C29.6948148,17.9614815 31.4103704,16.317037 31.4103704,13.9792593 Z" id="Shape" fill="#EA4335"></path><path d="M48.5185185,13.9792593 C48.5185185,17.762963 45.5585185,20.5511111 41.9259259,20.5511111 C38.2933333,20.5511111 35.3333333,17.762963 35.3333333,13.9792593 C35.3333333,10.1718519 38.2933333,7.40740741 41.9259259,7.40740741 C45.5585185,7.40740741 48.5185185,10.1688889 48.5185185,13.9792593 Z M45.6325926,13.9792593 C45.6325926,11.6148148 43.917037,9.99703704 41.9259259,9.99703704 C39.9348148,9.99703704 38.2192593,11.6148148 38.2192593,13.9792593 C38.2192593,16.32 39.9348148,17.9614815 41.9259259,17.9614815 C43.917037,17.9614815 45.6325926,16.317037 45.6325926,13.9792593 Z" id="Shape" fill="#FBBC05"></path><path d="M62.1481481,7.80444444 L62.1481481,19.602963 C62.1481481,24.4562963 59.2859259,26.4385185 55.9022222,26.4385185 C52.717037,26.4385185 50.8,24.3081481 50.077037,22.5659259 L52.5896296,21.52 C53.037037,22.5896296 54.1333333,23.8518519 55.8992593,23.8518519 C58.0651852,23.8518519 59.4074074,22.5155556 59.4074074,20 L59.4074074,19.0548148 L59.3066667,19.0548148 C58.6607407,19.8518519 57.4162963,20.5481481 55.8459259,20.5481481 C52.56,20.5481481 49.5496296,17.6859259 49.5496296,14.002963 C49.5496296,10.2933333 52.56,7.40740741 55.8459259,7.40740741 C57.4133333,7.40740741 58.6577778,8.1037037 59.3066667,8.87703704 L59.4074074,8.87703704 L59.4074074,7.80740741 L62.1481481,7.80740741 L62.1481481,7.80444444 Z M59.6118519,14.002963 C59.6118519,11.6888889 58.0681481,9.99703704 56.1037037,9.99703704 C54.1125926,9.99703704 52.4444444,11.6888889 52.4444444,14.002963 C52.4444444,16.2933333 54.1125926,17.9614815 56.1037037,17.9614815 C58.0681481,17.9614815 59.6118519,16.2933333 59.6118519,14.002963 Z" id="Shape" fill="#4285F4"></path><polygon id="Path" fill="#34A853" points="66.6666667 0.888888889 66.6666667 20.1481481 63.8518519 20.1481481 63.8518519 0.888888889"></polygon><path d="M77.6355556,16.1422222 L79.8755556,17.6355556 C79.1525926,18.7051852 77.4103704,20.5481481 74.4,20.5481481 C70.6666667,20.5481481 67.8785185,17.6622222 67.8785185,13.9762963 C67.8785185,10.0681481 70.6903704,7.40444444 74.077037,7.40444444 C77.4874074,7.40444444 79.1555556,10.1185185 79.7007407,11.5851852 L80,12.3318519 L71.2148148,15.9703704 C71.8874074,17.2888889 72.9333333,17.9614815 74.4,17.9614815 C75.8696296,17.9614815 76.8888889,17.2385185 77.6355556,16.1422222 Z M70.7407407,13.7777778 L76.6133333,11.3392593 C76.2903704,10.5185185 75.3185185,9.94666667 74.1748148,9.94666667 C72.7081481,9.94666667 70.6666667,11.2414815 70.7407407,13.7777778 L70.7407407,13.7777778 Z" id="Shape" fill="#EA4335"></path><path d="M10.4562963,12.2696296 L10.4562963,9.48148148 L19.8518519,9.48148148 C19.9437037,9.96740741 19.9911111,10.5422222 19.9911111,11.1644444 C19.9911111,13.2562963 19.4192593,15.842963 17.5762963,17.6859259 C15.7837037,19.5525926 13.4933333,20.5481481 10.4592593,20.5481481 C4.83555556,20.5481481 0.106666667,15.9674074 0.106666667,10.3437037 C0.106666667,4.72 4.83555556,0.139259259 10.4592593,0.139259259 C13.5703704,0.139259259 15.7866667,1.36 17.4518519,2.95111111 L15.4844444,4.91851852 C14.2903704,3.79851852 12.6725926,2.92740741 10.4562963,2.92740741 C6.34962963,2.92740741 3.13777778,6.23703704 3.13777778,10.3437037 C3.13777778,14.4503704 6.34962963,17.76 10.4562963,17.76 C13.12,17.76 14.637037,16.6903704 15.6088889,15.7185185 C16.397037,14.9303704 16.9155556,13.8044444 17.12,12.2666667 L10.4562963,12.2696296 Z" id="Path" fill="#4285F4"></path></g></g></svg> 