<?xml version="1.0" encoding="UTF-8"?> <svg xmlns="http://www.w3.org/2000/svg" viewBox="0 0 351.88 36.05"><defs><style>.cls-1{fill-rule:evenodd;}</style></defs><g id="Layer_2" data-name="Layer 2"><g id="Layer_1-2" data-name="Layer 1"><polygon class="cls-1" points="351.88 2.11 347.11 2.11 347.11 24.08 324.12 0 324.12 33.7 328.89 33.7 328.89 11.65 351.88 35.66 351.88 2.11"></polygon><path class="cls-1" d="M312.86,9.62A17.5,17.5,0,0,0,307,3.76a16.12,16.12,0,0,0-8.21-2.27,17,17,0,0,0-8.45,2.27,16.66,16.66,0,0,0-5.94,5.94A16.41,16.41,0,0,0,282.12,18a17,17,0,0,0,2.27,8.37,16.9,16.9,0,0,0,5.94,5.79,17.38,17.38,0,0,0,8.45,2.19A16.12,16.12,0,0,0,307,32.07a17.62,17.62,0,0,0,5.87-5.87,16.74,16.74,0,0,0,2.27-8.29,16.51,16.51,0,0,0-2.27-8.29Zm-8.21-2a11.26,11.26,0,0,1,4.14,4.22,12.16,12.16,0,0,1,1.56,6.1,13.17,13.17,0,0,1-1.56,6.1,11.26,11.26,0,0,1-4.22,4.14,11.11,11.11,0,0,1-5.87,1.64,12.28,12.28,0,0,1-5.94-1.56A10.9,10.9,0,0,1,288.54,24a12.16,12.16,0,0,1-1.56-6.1,12.27,12.27,0,0,1,1.56-6.1,10.7,10.7,0,0,1,4.14-4.22,11.26,11.26,0,0,1,6-1.64,11,11,0,0,1,5.95,1.64Z"></path><polygon class="cls-1" points="270.55 6.57 277.83 6.57 277.83 2.11 258.59 2.11 258.59 6.57 265.79 6.57 265.79 33.7 270.55 33.7 270.55 6.57"></polygon><polygon class="cls-1" points="254.06 6.57 254.06 2.11 234.82 2.11 234.82 6.57 242.01 6.57 242.01 33.7 246.78 33.7 246.78 6.57 254.06 6.57"></polygon><polygon class="cls-1" points="226.61 2.11 221.84 2.11 221.84 33.7 226.61 33.7 226.61 2.11"></polygon><path class="cls-1" d="M210.66,2.11h-4.77v19l-.16,3.28L205,26.58a6.34,6.34,0,0,1-2.42,2.35,7.68,7.68,0,0,1-3.44.86,7.31,7.31,0,0,1-3.52-.86,5.77,5.77,0,0,1-2.42-2.35,5.55,5.55,0,0,1-.78-2.19,18.63,18.63,0,0,1-.23-3.28v-19h-4.77V22.44a12.12,12.12,0,0,0,1.49,6.1A12.56,12.56,0,0,0,193,32.76a12.93,12.93,0,0,0,6.1,1.56A12.77,12.77,0,0,0,205,32.76a12.47,12.47,0,0,0,4.14-4.22,14,14,0,0,0,1.49-6.1V2.11Z"></path><polygon class="cls-1" points="174.61 2.11 165.77 24.01 157.09 2.11 151.85 2.11 165.7 36.05 179.85 2.11 174.61 2.11"></polygon><path class="cls-1" d="M130.82,24.08a8.51,8.51,0,0,0-1.8-5.4,13.28,13.28,0,0,0-5.55-3.83l-3.13-1.25-1.25-.55-.78-.55a2.82,2.82,0,0,1-1.41-2.66,3.29,3.29,0,0,1,1.25-2.74,5.57,5.57,0,0,1,3.28-1.17,4.79,4.79,0,0,1,2.66.7,6.68,6.68,0,0,1,2.11,2.42L130,6.78a11.81,11.81,0,0,0-3.67-4.07,8.78,8.78,0,0,0-4.85-1.25,12.07,12.07,0,0,0-4.85,1.17,7.6,7.6,0,0,0-3.36,2.89,6.8,6.8,0,0,0-1.25,4.3c-.08,3.52,2.11,6.18,6.49,8l3,1.33,2.35,1.25a4.94,4.94,0,0,1,2.19,4.14,5.09,5.09,0,0,1-5.17,5.24,6.4,6.4,0,0,1-2.74-.62,4.45,4.45,0,0,1-1.8-1.8L115.79,26l-.39-2.19L110.55,25a11.08,11.08,0,0,0,3.36,6.88,10.18,10.18,0,0,0,6.88,2.42A11,11,0,0,0,126,33a10.56,10.56,0,0,0,3.52-3.67,10.85,10.85,0,0,0,1.35-5.21Z"></path><polygon class="cls-1" points="101.03 2.11 96.26 2.11 96.26 33.7 101.03 33.7 101.03 2.11"></polygon><path class="cls-1" d="M85.15,2.11H80.3v19l-.16,3.28-.78,2.19a6.34,6.34,0,0,1-2.42,2.35,7.22,7.22,0,0,1-3.44.86A7.31,7.31,0,0,1,70,28.93a5.77,5.77,0,0,1-2.42-2.35l-.78-2.19a18.63,18.63,0,0,1-.23-3.28v-19H61.78V22.44a13.17,13.17,0,0,0,1.56,6.1,11.94,11.94,0,0,0,4.14,4.22,12.61,12.61,0,0,0,6,1.56,12.28,12.28,0,0,0,5.94-1.56,12.47,12.47,0,0,0,4.14-4.22,12.93,12.93,0,0,0,1.56-6.1V2.11Z"></path><path class="cls-1" d="M52.23,17.91A16.44,16.44,0,0,0,50,9.62,17.56,17.56,0,0,0,44.1,3.76a16.42,16.42,0,0,0-16.66,0A16.66,16.66,0,0,0,21.5,9.7,16.41,16.41,0,0,0,19.23,18a17,17,0,0,0,2.27,8.37,17.45,17.45,0,0,0,5.86,5.79,17.83,17.83,0,0,0,8.45,2.19,16.44,16.44,0,0,0,8.29-2.27A17.5,17.5,0,0,0,50,26.2a16.57,16.57,0,0,0,2.27-8.29Zm-16.42-12a11.18,11.18,0,0,1,5.94,1.64,11.26,11.26,0,0,1,4.14,4.22,12.93,12.93,0,0,1,1.56,6.1A13.17,13.17,0,0,1,45.89,24a11.26,11.26,0,0,1-4.22,4.14,11.1,11.1,0,0,1-5.86,1.64,12.28,12.28,0,0,1-5.94-1.56A10.9,10.9,0,0,1,25.65,24a12.16,12.16,0,0,1-1.56-6.1,12.27,12.27,0,0,1,1.56-6.1,10.77,10.77,0,0,1,4.14-4.22,11.28,11.28,0,0,1,6-1.64Z"></path><polygon class="cls-1" points="4.77 2.11 0 2.11 0 33.7 14.07 33.7 14.07 29.17 4.77 29.17 4.77 2.11"></polygon></g></g></svg> 