<?xml version="1.0" encoding="UTF-8"?> <svg xmlns="http://www.w3.org/2000/svg" xmlns:xlink="http://www.w3.org/1999/xlink" width="91px" height="20px" viewBox="0 0 91 20" version="1.1"><title>brand-microsoft</title><g id="Page-1" stroke="none" stroke-width="1" fill="none" fill-rule="evenodd"><g id="brand-microsoft" fill-rule="nonzero"><path d="M32.1211921,11.1942053 L31.5788079,12.7309603 L31.5336093,12.7309603 C31.4432119,12.3844371 31.2774834,11.8571192 31.0062914,11.2243377 L28.0985099,3.91721854 L25.2509934,3.91721854 L25.2509934,15.5634106 L27.1342715,15.5634106 L27.1342715,8.37682119 C27.1342715,7.92483444 27.1342715,7.41258278 27.1192053,6.77980132 C27.1041391,6.4634106 27.0740066,6.22235099 27.0589404,6.04155629 L27.1041391,6.04155629 C27.1945364,6.49354305 27.3,6.825 27.3753311,7.03592715 L30.8706954,15.5332781 L32.1965232,15.5332781 L35.661755,6.96059603 C35.7370861,6.7647351 35.8124172,6.37301325 35.8877483,6.04155629 L35.932947,6.04155629 C35.8877483,6.90033113 35.8576159,7.66870861 35.8425497,8.13576159 L35.8425497,15.5182119 L37.8463576,15.5182119 L37.8463576,3.88708609 L35.1043046,3.88708609 L32.1211921,11.1942053 L32.1211921,11.1942053 Z M39.744702,7.17152318 L41.7033113,7.17152318 L41.7033113,15.5182119 L39.744702,15.5182119 L39.744702,7.17152318 Z M40.7390728,3.64602649 C40.4076159,3.64602649 40.1364238,3.76655629 39.9104305,3.97748344 C39.6844371,4.1884106 39.5639073,4.45960265 39.5639073,4.7910596 C39.5639073,5.10745033 39.6844371,5.37864238 39.9104305,5.58956954 C40.1364238,5.80049669 40.4076159,5.90596026 40.7390728,5.90596026 C41.0705298,5.90596026 41.3567881,5.78543046 41.5677152,5.58956954 C41.7937086,5.37864238 41.9142384,5.10745033 41.9142384,4.7910596 C41.9142384,4.47466887 41.7937086,4.20347682 41.5677152,3.97748344 C41.3718543,3.76655629 41.085596,3.64602649 40.7390728,3.64602649 M48.6488411,7.09619205 C48.2872517,7.02086093 47.910596,6.97566225 47.5490066,6.97566225 C46.6600993,6.97566225 45.8465232,7.17152318 45.168543,7.56324503 C44.4905629,7.95496689 43.9481788,8.49735099 43.6016556,9.17533113 C43.2400662,9.86837748 43.0592715,10.6668874 43.0592715,11.5859272 C43.0592715,12.3844371 43.2400662,13.0925497 43.5865894,13.7403974 C43.9331126,14.3731788 44.4152318,14.8854305 45.0630795,15.2319536 C45.6807947,15.5784768 46.4039735,15.7592715 47.2175497,15.7592715 C48.1516556,15.7592715 48.9501656,15.5634106 49.582947,15.2018212 L49.5980132,15.186755 L49.5980132,13.3788079 L49.5226821,13.4390728 C49.2364238,13.65 48.9049669,13.8307947 48.5735099,13.9362583 C48.2269868,14.0567881 47.910596,14.117053 47.639404,14.117053 C46.8559603,14.117053 46.238245,13.8910596 45.8013245,13.3938742 C45.3493377,12.911755 45.1233444,12.2488411 45.1233444,11.4201987 C45.1233444,10.5614238 45.3493377,9.88344371 45.8163907,9.38625828 C46.2834437,8.88907285 46.9011589,8.63294702 47.6544702,8.63294702 C48.2872517,8.63294702 48.9350993,8.84387417 49.5226821,9.26572848 L49.5980132,9.32599338 L49.5980132,7.41258278 L49.582947,7.39751656 C49.3268212,7.29205298 49.0405629,7.17152318 48.6488411,7.09619205 M55.1122517,7.03592715 C54.6301325,7.03592715 54.1781457,7.1865894 53.7864238,7.50298013 C53.4549669,7.77417219 53.2289735,8.16589404 53.0331126,8.63294702 L53.0180464,8.63294702 L53.0180464,7.17152318 L51.0594371,7.17152318 L51.0594371,15.5182119 L53.0180464,15.5182119 L53.0180464,11.2544702 C53.0180464,10.5312914 53.1687086,9.92864238 53.5001656,9.49172185 C53.8316225,9.0397351 54.2534768,8.81374172 54.7657285,8.81374172 C54.9465232,8.81374172 55.1273179,8.8589404 55.3533113,8.88907285 C55.5642384,8.94933775 55.7149007,9.00960265 55.8203642,9.08493377 L55.8956954,9.14519868 L55.8956954,7.1865894 L55.8504967,7.17152318 C55.7149007,7.08112583 55.4437086,7.03592715 55.1122517,7.03592715 M60.4456954,6.99072848 C59.0746689,6.99072848 57.9748344,7.39751656 57.206457,8.19602649 C56.4230132,8.99453642 56.0463576,10.0943709 56.0463576,11.4804636 C56.0463576,12.7761589 56.4380795,13.8307947 57.1913907,14.5991722 C57.944702,15.3524834 58.9692053,15.7442053 60.2498344,15.7442053 C61.5907285,15.7442053 62.6604305,15.3374172 63.4288079,14.5238411 C64.2122517,13.7102649 64.5889073,12.6254967 64.5889073,11.2846026 C64.5889073,9.95877483 64.2273179,8.90413907 63.4890728,8.13576159 C62.7809603,7.36738411 61.7413907,6.99072848 60.4456954,6.99072848 M62.0125828,13.4089404 C61.6509934,13.8759934 61.0784768,14.1019868 60.3703642,14.1019868 C59.6622517,14.1019868 59.0897351,13.8759934 58.682947,13.3788079 C58.2761589,12.911755 58.080298,12.2337748 58.080298,11.375 C58.080298,10.4860927 58.2912252,9.80811258 58.682947,9.32599338 C59.0897351,8.84387417 59.6471854,8.60281457 60.355298,8.60281457 C61.0483444,8.60281457 61.5907285,8.82880795 61.9824503,9.29586093 C62.3741722,9.76291391 62.5850993,10.440894 62.5850993,11.3298013 C62.5549669,12.2337748 62.3892384,12.9418874 62.0125828,13.4089404 M68.9581126,10.636755 C68.3403974,10.3806291 67.9486755,10.1847682 67.7678808,10.0190397 C67.6172185,9.86837748 67.5418874,9.65745033 67.5418874,9.38625828 C67.5418874,9.1602649 67.6322848,8.93427152 67.8582781,8.78360927 C68.0842715,8.63294702 68.3403974,8.55761589 68.717053,8.55761589 C69.0485099,8.55761589 69.3950331,8.61788079 69.7264901,8.70827815 C70.057947,8.7986755 70.3592715,8.93427152 70.6003311,9.11506623 L70.6756623,9.17533113 L70.6756623,7.33725166 L70.6304636,7.32218543 C70.4044702,7.23178808 70.1031457,7.14139073 69.7415563,7.0660596 C69.3799669,7.0057947 69.0485099,6.97566225 68.7773179,6.97566225 C67.8432119,6.97566225 67.0748344,7.20165563 66.4721854,7.69884106 C65.8695364,8.16589404 65.5832781,8.7986755 65.5832781,9.53692053 C65.5832781,9.92864238 65.643543,10.2751656 65.7791391,10.5614238 C65.9147351,10.8476821 66.110596,11.1188742 66.3817881,11.3448675 C66.6529801,11.5557947 67.044702,11.7968543 67.5870861,12.0228477 C68.0390728,12.2187086 68.385596,12.3693709 68.5965232,12.4899007 C68.8074503,12.6104305 68.9430464,12.7460265 69.0485099,12.8514901 C69.1238411,12.9720199 69.1690397,13.1226821 69.1690397,13.318543 C69.1690397,13.8759934 68.7471854,14.1471854 67.8884106,14.1471854 C67.5569536,14.1471854 67.2104305,14.0869205 66.8036424,13.9513245 C66.3968543,13.8157285 66.0201987,13.6198675 65.7038079,13.3938742 L65.6284768,13.3336093 L65.6284768,15.2470199 L65.6736755,15.2620861 C65.9599338,15.3976821 66.306457,15.4880795 66.7283113,15.593543 C67.1501656,15.6688742 67.5268212,15.7291391 67.8582781,15.7291391 C68.8677152,15.7291391 69.6963576,15.5031457 70.2839404,15.0059603 C70.8865894,14.5238411 71.2029801,13.9061258 71.2029801,13.1076159 C71.2029801,12.5501656 71.0523179,12.0529801 70.7208609,11.6763245 C70.2839404,11.3147351 69.7415563,10.9380795 68.9581126,10.636755 M76.3706954,6.99072848 C74.9996689,6.99072848 73.8998344,7.39751656 73.131457,8.19602649 C72.3630795,8.99453642 71.9713576,10.0943709 71.9713576,11.4804636 C71.9713576,12.7761589 72.3630795,13.8307947 73.1163907,14.5991722 C73.869702,15.3524834 74.8942053,15.7442053 76.1748344,15.7442053 C77.5157285,15.7442053 78.5854305,15.3374172 79.3538079,14.5238411 C80.1372517,13.7102649 80.5139073,12.6254967 80.5139073,11.2846026 C80.5139073,9.95877483 80.1523179,8.90413907 79.4140728,8.13576159 C78.7059603,7.36738411 77.6663907,6.99072848 76.3706954,6.99072848 M77.9225166,13.4089404 C77.5609272,13.8759934 76.9884106,14.1019868 76.280298,14.1019868 C75.5571192,14.1019868 74.9996689,13.8759934 74.5928808,13.3788079 C74.1860927,12.911755 73.9902318,12.2337748 73.9902318,11.375 C73.9902318,10.4860927 74.2011589,9.80811258 74.5928808,9.32599338 C74.9996689,8.84387417 75.5571192,8.60281457 76.2652318,8.60281457 C76.9432119,8.60281457 77.5006623,8.82880795 77.8923841,9.29586093 C78.284106,9.76291391 78.4950331,10.440894 78.4950331,11.3298013 C78.4950331,12.2337748 78.2991722,12.9418874 77.9225166,13.4089404 M90.9849338,8.78360927 L90.9849338,7.17152318 L89.0112583,7.17152318 L89.0112583,4.70066225 L88.9509934,4.71572848 L87.0827815,5.27317881 L87.0375828,5.28824503 L87.0375828,7.17152318 L84.0846026,7.17152318 L84.0846026,6.11688742 C84.0846026,5.63476821 84.2051325,5.25811258 84.4160596,5.01705298 C84.6269868,4.77599338 84.9433775,4.65546358 85.3350993,4.65546358 C85.6062914,4.65546358 85.8925497,4.71572848 86.2089404,4.8513245 L86.2842715,4.89652318 L86.2842715,3.19403974 L86.2390728,3.17897351 C85.9678808,3.08857616 85.6062914,3.02831126 85.1392384,3.02831126 C84.5516556,3.02831126 84.039404,3.16390728 83.572351,3.38990066 C83.105298,3.64602649 82.7587748,3.99254967 82.502649,4.45960265 C82.2465232,4.9115894 82.1109272,5.42384106 82.1109272,6.01142384 L82.1109272,7.17152318 L80.7399007,7.17152318 L80.7399007,8.76854305 L82.1109272,8.76854305 L82.1109272,15.5182119 L84.0846026,15.5182119 L84.0846026,8.78360927 L87.0375828,8.78360927 L87.0375828,13.0774834 C87.0375828,14.8402318 87.8662252,15.7291391 89.5235099,15.7291391 C89.794702,15.7291391 90.0809603,15.6839404 90.3521523,15.6387417 C90.6384106,15.5784768 90.8493377,15.5031457 90.9698675,15.4428808 L90.9849338,15.4278146 L90.9849338,13.8157285 L90.9096026,13.8759934 C90.7890728,13.9513245 90.6836093,14.0115894 90.5028146,14.0567881 C90.3521523,14.1019868 90.2165563,14.117053 90.1110927,14.117053 C89.7193709,14.117053 89.4481788,14.0266556 89.2523179,13.8006623 C89.0715232,13.5897351 88.9811258,13.2432119 88.9811258,12.7309603 L88.9811258,8.78360927 L90.9849338,8.78360927 L90.9849338,8.78360927 Z" id="Shape" fill="#737373"></path><polygon id="Path" fill="#F25022" points="0 0 9.23559603 0 9.23559603 9.23559603 0 9.23559603"></polygon><polygon id="Path" fill="#7FBA00" points="10.1998344 0 19.4354305 0 19.4354305 9.23559603 10.1998344 9.23559603"></polygon><polygon id="Path" fill="#00A4EF" points="0 10.1998344 9.23559603 10.1998344 9.23559603 19.4354305 0 19.4354305"></polygon><polygon id="Path" fill="#FFB900" points="10.1998344 10.1998344 19.4354305 10.1998344 19.4354305 19.4354305 10.1998344 19.4354305"></polygon></g></g></svg> 