<?xml version="1.0" encoding="UTF-8"?> <svg xmlns="http://www.w3.org/2000/svg" xmlns:xlink="http://www.w3.org/1999/xlink" width="88px" height="14px" viewBox="0 0 88 14" version="1.1"><title>brand-samsung</title><g id="Page-1" stroke="none" stroke-width="1" fill="none" fill-rule="evenodd"><g id="brand-samsung" fill="#034EA2" fill-rule="nonzero"><path d="M5.84150629,9.45285176 C5.96257875,9.75700939 5.92418992,10.1468036 5.86513019,10.3830426 C5.76177565,10.8023667 5.47828893,11.2305497 4.63964072,11.2305497 C3.85414627,11.2305497 3.37576243,10.7757898 3.37576243,10.0906969 L3.37576243,8.87111339 L0.000498666667,8.87111339 L0.000498666667,9.83969301 C0.000498666667,12.6450303 2.20637971,13.4925375 4.57172203,13.4925375 C6.84552176,13.4925375 8.71771531,12.718855 9.01596696,10.6192815 C9.16952227,9.5325824 9.05730877,8.82091261 9.00415501,8.5580968 C8.47261741,5.92403269 3.70059096,5.13853824 3.34327957,3.66499789 C3.29366243,3.447695 3.28964046,3.22246471 3.33146763,3.00352888 C3.42005723,2.59896971 3.69468499,2.15897469 4.48017944,2.15897469 C5.21842611,2.15897469 5.64660917,2.61373464 5.64660917,3.29882755 L5.64660917,4.07841603 L8.785634,4.07841603 L8.785634,3.19252003 C8.785634,0.4521484 6.32579611,0.0239653333 4.54809813,0.0239653333 C2.30973424,0.0239653333 0.481835493,0.765164987 0.148148,2.81749072 C0.0595584,3.37855819 0.0447934667,3.88056592 0.177677867,4.51250507 C0.7239804,7.08160347 5.19184923,7.82575611 5.84150629,9.45285176" id="S"></path><path d="M13.4661179,0.42557152 L11.1332584,13.0023417 L14.5321461,13.0023417 L16.2537373,1.58904827 L16.324609,1.58904827 L17.9989524,13.0023417 L21.3801221,13.0023417 L19.0620276,0.422618533 L13.4661179,0.42557152 Z M32.4685871,0.42557152 L30.9182691,10.0404961 L30.8444444,10.0404961 L29.2970794,0.42557152 L24.1677415,0.42557152 L23.8901608,13.0023417 L27.0380446,13.0023417 L27.1148222,1.69535579 L27.1856939,1.69535579 L29.2852674,13.0023417 L32.477446,13.0023417 L34.5799725,1.69830877 L34.6478912,1.69830877 L34.7276219,13.0023417 L37.8725527,13.0023417 L37.5949719,0.422618533 L32.4685871,0.42557152 Z" id="Shape"></path><g id="S-link" transform="translate(40.890505, 0.000341)"><path d="M5.84100763,9.42888643 C5.96208008,9.73304405 5.92369125,10.1228383 5.86463152,10.3590772 C5.76127699,10.7784013 5.47779027,11.2065844 4.63914205,11.2065844 C3.8536476,11.2065844 3.37526376,10.7518245 3.37526376,10.0667315 L3.37526376,8.84714805 L0,8.84714805 L0,9.81572768 C0,12.621065 2.20588104,13.4685722 4.57122336,13.4685722 C6.84502309,13.4685722 8.71721664,12.6948897 9.01546829,10.5953162 C9.1690236,9.50861707 9.05681011,8.79694728 9.00365635,8.53413147 C8.47211875,5.90006736 3.70009229,5.11457291 3.34278091,3.64103256 C3.29316376,3.42372967 3.28914179,3.19849937 3.33096896,2.97956355 C3.41955856,2.57500437 3.69418632,2.13500936 4.47968077,2.13500936 C5.21792744,2.13500936 5.64611051,2.58976931 5.64611051,3.27486221 L5.64611051,4.05445069 L8.78513533,4.05445069 L8.78513533,3.16855469 C8.78513533,0.428183067 6.32529744,0 4.54759947,0 C2.30923557,0 0.481336827,0.741199653 0.147649333,2.79352539 C0.0590597333,3.35459285 0.0442948,3.85660059 0.1771792,4.48853973 C0.723481733,7.05763813 5.19135056,7.80179077 5.84100763,9.42888643" id="S"></path></g><path d="M57.28844,11.1183362 C58.1625241,11.1183362 58.4312458,10.515927 58.4932586,10.2088163 C58.5198354,10.072979 58.5227884,9.88989379 58.5227884,9.72747952 L58.5227884,0.42557152 L61.7061338,0.42557152 L61.7061338,9.44103981 C61.7067073,9.71692588 61.6968569,9.99273566 61.6765782,10.2678761 C61.4551042,12.6155005 59.6006286,13.377371 57.28844,13.377371 C54.9732985,13.377371 53.1188228,12.6155005 52.8973488,10.2678761 C52.8884899,10.1438506 52.864866,9.67137277 52.867819,9.44103981 L52.867819,0.422618533 L56.0511386,0.422618533 L56.0511386,9.72452653 C56.0481856,9.88989379 56.0540916,10.072979 56.0806685,10.2088163 C56.1397282,10.515927 56.411403,11.1183362 57.28844,11.1183362 M72.6675946,0.42557152 L72.8388678,10.2974059 L72.7709491,10.2974059 L69.8770222,0.42557152 L65.2113032,0.42557152 L65.2113032,12.8694573 L68.3030803,12.8694573 L68.131807,2.65507645 L68.1997257,2.65507645 L71.3033147,12.8694573 L75.7829955,12.8694573 L75.7829955,0.42557152 L72.6675946,0.42557152 Z M83.5198206,10.9884048 C84.4293405,10.9884048 84.748263,10.4125724 84.8043698,10.072979 C84.8309466,9.93418859 84.8338996,9.75700939 84.8338996,9.60050109 L84.8338996,7.76964936 L83.5434445,7.76964936 L83.5434445,5.93879763 L87.9995013,5.93879763 L87.9995013,9.3111084 C87.9995013,9.54734733 87.9935954,9.71862056 87.9552065,10.1379447 C87.7484975,12.4294623 85.7611374,13.2474396 83.5316325,13.2474396 C81.3021276,13.2474396 79.3177205,12.4294623 79.1080585,10.1379447 C79.0726226,9.71862056 79.0637637,9.54734733 79.0637637,9.3111084 L79.0637637,4.01935629 C79.0637637,3.79492931 79.0932935,3.39922909 79.1169174,3.19252003 C79.3974512,0.838989653 81.3021276,0.0830250667 83.5316325,0.0830250667 C85.7611374,0.0830250667 87.7160146,0.83308368 87.9463476,3.18956704 C87.9876894,3.59117323 87.9758774,4.01640331 87.9758774,4.01640331 L87.9758774,4.4386804 L84.8043698,4.4386804 L84.8043698,3.73291659 C84.8043698,3.73291659 84.8043698,3.43761792 84.7659809,3.25453275 C84.7069212,2.976952 84.4706823,2.33910688 83.5080086,2.33910688 C82.5925827,2.33910688 82.323861,2.94446915 82.2559423,3.25453275 C82.2175534,3.4199 82.2027885,3.64432699 82.2027885,3.84808307 L82.2027885,9.59754811 C82.2027885,9.75700939 82.2086945,9.93418859 82.2323184,10.0759319 C82.2913781,10.4125724 82.6103007,10.9884048 83.5198206,10.9884048" id="Shape"></path></g></g></svg> 