<?xml version="1.0" encoding="UTF-8"?> <!-- Generator: Adobe Illustrator 25.4.1, SVG Export Plug-In . SVG Version: 6.00 Build 0) --> <svg xmlns="http://www.w3.org/2000/svg" xmlns:xlink="http://www.w3.org/1999/xlink" version="1.1" id="Layer_1" x="0px" y="0px" viewBox="0 0 792 110" style="enable-background:new 0 0 792 110;" xml:space="preserve"> <style type="text/css"> .st0{fill:#E51837;} </style> <g> <path class="st0" d="M3,3.9c2.3,8.9,10,18,20.5,20.3h31.9l1.6,0.6v80.5H77V24.8l1.8-0.6h32c10.7-2.7,18.2-11.4,20.5-20.3V3.7H3 L3,3.9L3,3.9z"></path> <path class="st0" d="M611.6,105.6c9.9-4.2,15.3-11.5,17.3-20h-88.5l0.1-81.8l-19.8,0.1v101.7L611.6,105.6L611.6,105.6z"></path> <path class="st0" d="M373.2,23.9h70.1c10.5-3.1,19.4-11.2,21.6-20.1L353.6,3.9v60h91.1v21.1l-71.4,0.1 c-11.2,3.1-20.7,10.6-25.4,20.6l5.8-0.1h110.7V44h-91V23.9z"></path> <polygon class="st0" points="671.4,44.1 671.4,105.6 691.1,105.6 691.1,64.6 762.9,64.6 762.9,105.6 782.6,105.6 782.6,44.2 "></polygon> <path class="st0" d="M200.3,24.1h75.8c10.5-2.1,18.4-11.4,20.6-20.4h-117C181.9,12.7,189.8,22,200.3,24.1"></path> <path class="st0" d="M200.3,64.3h75.8c10.5-2.1,18.4-11.4,20.6-20.4h-117C181.9,52.9,189.8,62.2,200.3,64.3"></path> <path class="st0" d="M200.3,105.6h75.8c10.5-2.1,18.4-11.4,20.6-20.4h-117C181.9,94.2,189.8,103.5,200.3,105.6"></path> <path class="st0" d="M688.9,24.2h75.8c10.5-2.1,18.4-11.4,20.6-20.4h-117C670.5,12.8,678.5,22.1,688.9,24.2"></path> </g> </svg> 